<svg width="1200" height="720" viewBox="0 0 1200 720" fill="none" xmlns="http://www.w3.org/2000/svg">
  <rect width="1200" height="720" fill="#F4FBF7"/>
  <rect y="454" width="1200" height="266" fill="#DCEFE6"/>
  <path d="M0 159C111 204 235 214 329 176C410 143 471 80 581 80C700 80 768 164 889 186C998 206 1110 172 1200 113V0H0V159Z" fill="#C6E7D7"/>
  <rect x="110" y="154" width="980" height="412" rx="28" fill="white"/>
  <rect x="110" y="154" width="980" height="76" rx="28" fill="#0F766E"/>
  <rect x="170" y="276" width="116" height="220" rx="18" fill="#D1FAE5"/>
  <rect x="327" y="339" width="116" height="157" rx="18" fill="#86EFAC"/>
  <rect x="484" y="245" width="116" height="251" rx="18" fill="#34D399"/>
  <rect x="641" y="301" width="116" height="195" rx="18" fill="#10B981"/>
  <rect x="798" y="212" width="116" height="284" rx="18" fill="#059669"/>
  <rect x="955" y="355" width="78" height="141" rx="18" fill="#F59E0B"/>
  <path d="M154 198H325" stroke="#CCFBF1" stroke-width="12" stroke-linecap="round"/>
  <circle cx="972" cy="208" r="27" fill="#FDE68A"/>
  <path d="M972 190V226" stroke="#7C5A07" stroke-width="9" stroke-linecap="round"/>
  <path d="M988 201C988 194 981 189 972 189C963 189 956 194 956 201C956 208 960 211 972 214C984 217 988 220 988 227C988 234 981 239 972 239C963 239 956 234 956 227" stroke="#7C5A07" stroke-width="9" stroke-linecap="round"/>
  <text x="170" y="205" fill="white" font-family="Arial, sans-serif" font-size="32" font-weight="700">City Annual Budget 2025</text>
  <text x="170" y="252" fill="#4C675E" font-family="Arial, sans-serif" font-size="24">Programs, obligations, and spending classes</text>
</svg>
