<svg width="1200" height="720" viewBox="0 0 1200 720" fill="none" xmlns="http://www.w3.org/2000/svg">
  <rect width="1200" height="720" fill="#FFF9F0"/>
  <rect y="482" width="1200" height="238" fill="#FCE9C9"/>
  <path d="M0 164C113 212 201 224 306 202C408 181 497 110 608 110C714 110 797 180 901 201C1013 223 1114 193 1200 142V0H0V164Z" fill="#F8DEAD"/>
  <path d="M151 299H1048" stroke="#A16207" stroke-width="14" stroke-linecap="round"/>
  <rect x="170" y="318" width="173" height="214" rx="18" fill="white"/>
  <rect x="366" y="318" width="173" height="214" rx="18" fill="white"/>
  <rect x="562" y="318" width="173" height="214" rx="18" fill="white"/>
  <rect x="758" y="318" width="173" height="214" rx="18" fill="white"/>
  <rect x="954" y="318" width="94" height="214" rx="18" fill="white"/>
  <path d="M160 298C172 229 230 181 295 181C360 181 419 229 430 298H160Z" fill="#F59E0B"/>
  <path d="M356 298C368 229 426 181 491 181C556 181 615 229 626 298H356Z" fill="#10B981"/>
  <path d="M552 298C564 229 622 181 687 181C752 181 811 229 822 298H552Z" fill="#0EA5E9"/>
  <path d="M748 298C760 229 818 181 883 181C948 181 1007 229 1018 298H748Z" fill="#F97316"/>
  <circle cx="257" cy="396" r="36" fill="#FDE68A"/>
  <circle cx="453" cy="396" r="36" fill="#D1FAE5"/>
  <circle cx="649" cy="396" r="36" fill="#BAE6FD"/>
  <circle cx="845" cy="396" r="36" fill="#FED7AA"/>
  <rect x="134" y="92" width="282" height="96" rx="24" fill="white" fill-opacity="0.78"/>
  <text x="170" y="132" fill="#7C4A04" font-family="Arial, sans-serif" font-size="34" font-weight="700">Registered Businesses</text>
  <text x="170" y="164" fill="#8D6A34" font-family="Arial, sans-serif" font-size="22">Shops, permits, and local trade</text>
</svg>
